#define x_width 15
#define x_height 14
static char x_bits[] = {
0x00, 0x00, 
0x00, 0x00, 
0xe0, 0x03, 
0x98, 0x0c, 
0x04, 0x10, 
0x0a, 0x28, 
0x02, 0x20, 
0x01, 0x40, 
0x01, 0x40, 
0x83, 0x60, 
0xc1, 0x41, 
0xfe, 0x3f, 
0x00, 0x00, 
0x00, 0x00, 
}; 
